<svg xmlns="http://www.w3.org/2000/svg" width="800" height="800" class="icon" version="1.1" viewBox="0 0 1024 1024"><path fill="#E5594F" d="M91.89 238.457c-29.899 0-54.133 24.239-54.133 54.134 0 29.899 24.234 54.137 54.133 54.137s54.138-24.238 54.138-54.137c0-29.896-24.239-54.134-54.138-54.134z"/><path fill="#C45FA0" d="M91.89 462.463c-29.899 0-54.133 24.239-54.133 54.139 0 29.895 24.234 54.133 54.133 54.133s54.138-24.238 54.138-54.133c0-29.9-24.239-54.139-54.138-54.139z"/><path fill="#F39A2B" d="M91.89 686.475c-29.899 0-54.133 24.237-54.133 54.133 0 29.899 24.234 54.138 54.133 54.138s54.138-24.238 54.138-54.138c0-29.896-24.239-54.133-54.138-54.133z"/><path fill="#F0D043" d="M941.26 234.723H328.964c-28.867 0-52.263 23.4-52.263 52.268v3.734c0 28.868 23.396 52.269 52.263 52.269H941.26c28.869 0 52.269-23.401 52.269-52.269v-3.734c-0.001-28.868-23.4-52.268-52.269-52.268z"/><path fill="#4A5699" d="M941.26 682.74H328.964c-28.867 0-52.263 23.399-52.263 52.268v3.734c0 28.863 23.396 52.269 52.263 52.269H941.26c28.869 0 52.269-23.405 52.269-52.269v-3.734c-0.001-28.868-23.4-52.268-52.269-52.268z"/><path fill="#E5594F" d="M709.781 458.729H328.964c-28.867 0-52.263 23.4-52.263 52.269v3.734c0 28.873 23.396 52.269 52.263 52.269h380.817c28.866 0 52.271-23.396 52.271-52.269v-3.734c0.001-28.869-23.405-52.269-52.271-52.269z"/></svg>